<?xml version="1.0" encoding="utf-8"?>
<!-- Generator: Adobe Illustrator 21.0.0, SVG Export Plug-In . SVG Version: 6.00 Build 0)  -->
<svg version="1.1" id="Capa_1" xmlns="http://www.w3.org/2000/svg" xmlns:xlink="http://www.w3.org/1999/xlink" x="0px" y="0px"
	 viewBox="0 0 205 60" style="enable-background:new 0 0 205 60;" xml:space="preserve">
<style type="text/css">
	.st0{fill:#1A171B;}
</style>
<g>
	<path class="st0" d="M0,45.6V1.4h9.2v36.2h22.1v7.9C31.3,45.6,0,45.6,0,45.6z M47.1,19.1c-2.2,0-3.9,0.6-5.1,1.9
		c-1.2,1.2-2,2.9-2.3,5.1h14.7c-0.2-2.3-0.9-4-2.3-5.2C50.8,19.7,49.1,19.1,47.1,19.1L47.1,19.1z M47.1,12c2.8,0,5.4,0.5,7.7,1.5
		c2.3,1,4.2,2.6,5.6,4.8c1.3,1.9,2.2,4.2,2.6,6.8c0.2,1.5,0.3,3.7,0.3,6.5H39.5c0.1,3.3,1.3,5.6,3.4,6.9c1.3,0.8,2.9,1.2,4.7,1.2
		c1.9,0,3.5-0.5,4.7-1.5c0.7-0.5,1.3-1.3,1.8-2.2h8.7c-0.2,1.9-1.3,3.9-3.2,5.9c-2.9,3.2-7,4.8-12.3,4.8c-4.3,0-8.2-1.3-11.5-4
		s-5-7-5-13.1c0-5.7,1.5-10,4.5-13C38.4,13.6,42.3,12,47.1,12L47.1,12z M77.1,37l7-24.1h9.2L81.4,45.6h-9L60.7,12.9h9.6L77.1,37z
		 M111.3,32.9v-3.2c-0.5,0.3-1.1,0.6-1.7,0.8c-0.6,0.2-1.3,0.4-2.3,0.6l-1.9,0.4c-1.8,0.3-3.1,0.7-3.9,1.2c-1.3,0.8-2,2-2,3.6
		c0,1.5,0.4,2.5,1.2,3.2c0.8,0.6,1.8,1,3,1c1.9,0,3.6-0.5,5.2-1.6C110.4,37.7,111.3,35.7,111.3,32.9L111.3,32.9z M103.2,26.1
		l2.9-0.4c1.6-0.2,2.7-0.5,3.4-0.8c1.2-0.5,1.8-1.3,1.8-2.4c0-1.3-0.5-2.3-1.4-2.8c-0.9-0.5-2.3-0.8-4.1-0.8c-2,0-3.5,0.5-4.3,1.5
		c-0.6,0.7-1,1.7-1.2,3H92c0.2-2.9,1-5.2,2.4-7c2.3-2.9,6.2-4.3,11.7-4.3c3.6,0,6.8,0.7,9.6,2.1c2.8,1.4,4.2,4.1,4.2,8v15l0.1,3.8
		c0.1,1.1,0.2,1.9,0.5,2.3c0.3,0.4,0.7,0.7,1.3,1v1.3h-9.3c-0.3-0.7-0.4-1.3-0.5-1.9c-0.1-0.6-0.2-1.2-0.2-2
		c-1.2,1.3-2.6,2.4-4.1,3.3c-1.8,1.1-3.9,1.6-6.3,1.6c-3,0-5.4-0.8-7.4-2.5c-1.9-1.7-2.9-4.1-2.9-7.2c0-4,1.6-6.9,4.7-8.7
		C97.3,27.2,99.8,26.5,103.2,26.1L103.2,26.1z M142,12.1c3.4,0,6.1,0.9,8.3,2.7s3.2,4.7,3.2,8.8v22h-8.8V25.7c0-1.7-0.2-3-0.7-4
		c-0.8-1.7-2.4-2.5-4.8-2.5c-2.9,0-4.9,1.2-5.9,3.7c-0.6,1.3-0.8,3-0.8,5v17.7H124V13h8.3v4.8c1.1-1.7,2.1-2.9,3.1-3.6
		C137.1,12.8,139.3,12.1,142,12.1L142,12.1z M159.3,19.3h-4.6v-6.1h4.6V4.1h8.5v9.1h5.3v6.1h-5.3v17.3c0,1.3,0.2,2.2,0.5,2.5
		c0.3,0.3,1.4,0.5,3.1,0.5l0.8,0l0.9,0v6.4l-4,0.2c-4,0.1-6.8-0.6-8.3-2.1c-1-1-1.4-2.5-1.4-4.5V19.3L159.3,19.3z M188.8,19.1
		c-2.2,0-3.9,0.6-5.1,1.9s-2,2.9-2.3,5.1h14.7c-0.2-2.3-0.9-4-2.3-5.2C192.5,19.7,190.8,19.1,188.8,19.1L188.8,19.1z M188.8,12
		c2.8,0,5.4,0.5,7.7,1.5c2.3,1,4.2,2.6,5.6,4.8c1.3,1.9,2.2,4.2,2.6,6.8c0.2,1.5,0.3,3.7,0.3,6.5h-23.8c0.1,3.3,1.3,5.6,3.4,6.9
		c1.3,0.8,2.9,1.2,4.7,1.2c1.9,0,3.5-0.5,4.7-1.5c0.7-0.5,1.3-1.3,1.8-2.2h8.7c-0.2,1.9-1.3,3.9-3.2,5.9c-2.9,3.2-7,4.8-12.3,4.8
		c-4.4,0-8.2-1.3-11.5-4c-3.3-2.7-5-7-5-13.1c0-5.7,1.5-10,4.5-13C180.1,13.6,184,12,188.8,12L188.8,12z"/>
	<path class="st0" d="M11.3,52.4c0-0.6-0.1-0.7-1-0.7v-0.5h6.9v2.3h-0.5c-0.4-1.2-0.7-1.7-1.9-1.7h-0.9c-0.4,0-0.4,0.1-0.4,0.4V55
		h1.1c0.8,0,0.9-0.2,1.2-1.1h0.5v3h-0.5c-0.2-0.9-0.4-1.2-1.2-1.2h-1.1v2.7c0,0.8,0.1,0.9,1.5,0.9c1.5,0,1.7-0.8,2.2-2.1h0.5
		l-0.2,2.6h-7.2v-0.5c0.9,0,1-0.1,1-0.7L11.3,52.4L11.3,52.4z M21.9,58.3c0,0.8,0.3,0.9,1.3,0.9c1.5,0,1.6-0.8,2-1.9h0.5l-0.1,2.5
		h-6.9v-0.5c0.9,0,1-0.1,1-0.7v-6.2c0-0.6-0.1-0.7-1-0.7v-0.5H23v0.5c-1.1,0-1.2,0.1-1.2,0.7L21.9,58.3L21.9,58.3z M29.1,59.8v-0.5
		c0.7-0.1,0.9,0,1-0.7c0.1-0.4,0.1-0.9,0.1-2v-4.2c0-0.6-0.1-0.7-1-0.7v-0.5h3.5c0.5,1.5,1.7,4.4,2.1,5.4h0c0.7-1.9,1.3-3.5,1.9-5.4
		h3.3v0.5c-0.9,0-1,0.1-1,0.7v6.2c0,0.6,0.1,0.7,1,0.7v0.5H36v-0.5c0.9,0,1-0.1,1-0.7v-6.2h0c-0.7,2-2.1,6.1-2.5,7.4h-0.8
		c-0.9-2.4-2-5.8-2.7-7.4h0v4.1c0,1.1,0,1.6,0.1,2c0.1,0.8,0.5,0.7,1.2,0.7v0.5H29.1z M42.1,52.4c0-0.6-0.1-0.7-1-0.7v-0.5H48v2.3
		h-0.5c-0.4-1.2-0.7-1.7-2-1.7h-0.9c-0.4,0-0.4,0.1-0.4,0.4V55h1.1c0.8,0,0.9-0.2,1.2-1.1H47v3h-0.5c-0.2-0.9-0.4-1.2-1.2-1.2h-1.1
		v2.7c0,0.8,0.1,0.9,1.5,0.9c1.5,0,1.7-0.8,2.2-2.1h0.5l-0.2,2.6h-7.2v-0.5c0.9,0,1-0.1,1-0.7V52.4z M52.6,58.6c0,0.6,0.1,0.7,1,0.7
		v0.5h-4.2v-0.5c0.9,0,1-0.1,1-0.7v-6.2c0-0.6-0.1-0.7-1-0.7v-0.5h4.5c1.5,0,3,0.2,3,2.1c0,1.3-0.9,1.9-2.2,2.1v0.1
		c1.4,0.3,1.9,1.2,2.1,2.1c0.2,1,0.4,1.7,1.3,1.7v0.5h-1c-1.4,0-2.1-0.3-2.4-1.3c-0.2-0.6-0.3-1.3-0.4-1.8c-0.2-0.7-0.5-0.9-1.2-0.9
		h-0.5L52.6,58.6L52.6,58.6z M52.6,55.2h0.5c1.4,0,1.5-0.9,1.5-1.8c0-1.2-0.6-1.7-1.4-1.7c-0.6,0-0.6,0.1-0.6,0.4
		C52.6,52.2,52.6,55.2,52.6,55.2z M66.4,56.9l-0.2,2.5c-0.8,0.5-2.1,0.6-3,0.6c-3.4,0-4.7-1.8-4.7-4.4c0-1.3,0.3-2.4,1.1-3.3
		c0.8-0.8,2-1.3,3.8-1.3c0.6,0,2,0.1,2.8,0.6v2.3h-0.5c-0.4-1-0.7-2.2-2.4-2.2c-2.3,0-2.4,3.1-2.4,3.8c0,1.4,0.3,4.1,2.5,4.1
		c1.4,0,1.9-1.1,2.4-2.5C65.9,56.9,66.4,56.9,66.4,56.9z M71.9,59.8v-0.5l0.8-0.1c0.3,0,0.3-0.2,0.2-0.4c-0.2-0.7-0.5-1.6-0.7-2
		h-2.5c-0.2,0.7-0.5,1.4-0.6,2.1c-0.1,0.3,0,0.4,0.2,0.4l0.8,0.1v0.5h-2.9v-0.5c0.7,0,0.8-0.1,1-0.6c0.7-1.5,1.9-5.2,2.7-7.5h1.7
		c0.7,2.1,2,6,2.6,7.6c0.2,0.5,0.4,0.6,1,0.6v0.5H71.9z M70.9,52.8L70.9,52.8c-0.3,0.8-0.8,2.3-1.1,3.3h2.1
		C71.7,55.3,71.1,53.7,70.9,52.8z M82.9,59.8c-1.5-2.3-3-4.6-4.6-6.9h-0.1v3.6c0,1.1,0,1.5,0.1,2c0.1,0.8,0.5,0.7,1.2,0.7v0.5h-3.1
		v-0.5c0.7-0.1,0.9,0,1-0.7c0.1-0.4,0.1-0.9,0.1-2v-4.2c0-0.6-0.1-0.7-1-0.7v-0.5h3.1c1.3,2,2.6,3.8,3.9,5.7h0.1v-2.5
		c0-1.1,0-1.5-0.1-2c-0.1-0.8-0.5-0.7-1.3-0.7v-0.5h3.1v0.5c-0.7,0.1-0.9,0-1,0.7c0,0.4-0.1,0.9-0.1,2v5.4L82.9,59.8L82.9,59.8z
		 M91,58.6c0,0.4,0.1,0.6,0.5,0.7l0.7,0.1v0.5h-4.6v-0.5l0.7-0.1c0.4,0,0.5-0.2,0.5-0.7v-6.8h-0.5c-1.1,0-1.3,0.6-1.8,1.8h-0.5v-2.4
		h7.7v2.4h-0.5c-0.5-1.2-0.6-1.8-1.8-1.8H91L91,58.6L91,58.6z M97.8,58.6c0,0.6,0.1,0.7,1,0.7v0.5h-4.2v-0.5c0.9,0,1-0.1,1-0.7v-6.2
		c0-0.6-0.1-0.7-1-0.7v-0.5h4.2v0.5c-0.9,0-1,0.1-1,0.7V58.6z M102.9,58.3c0,0.8,0.3,0.9,1.3,0.9c1.5,0,1.6-0.8,2-1.9h0.5l-0.1,2.5
		h-6.9v-0.5c0.9,0,1-0.1,1-0.7v-6.2c0-0.6-0.1-0.7-1-0.7v-0.5h4.4v0.5c-1.1,0-1.2,0.1-1.2,0.7L102.9,58.3L102.9,58.3z M113.8,51.2
		v0.5l-0.6,0.1c-0.3,0-0.3,0.2-0.2,0.4c0.6,1.9,1.5,4.4,1.9,5.7h0.1c0.6-1.8,1.6-4.9,1.8-5.7c0-0.3,0-0.4-0.2-0.4l-0.7-0.1v-0.5h2.9
		v0.5c-0.7,0.1-0.8,0.1-1.1,0.8c-0.9,2.2-1.8,5-2.6,7.4h-1.8c-0.9-2.6-2.1-5.9-2.7-7.5c-0.2-0.5-0.3-0.6-0.9-0.6v-0.5
		C109.7,51.2,113.8,51.2,113.8,51.2z M122.4,59.8v-0.5l0.8-0.1c0.3,0,0.3-0.2,0.2-0.4c-0.2-0.7-0.5-1.6-0.7-2h-2.5
		c-0.2,0.7-0.5,1.4-0.6,2.1c-0.1,0.3,0,0.4,0.2,0.4l0.8,0.1v0.5h-2.9v-0.5c0.7,0,0.8-0.1,1-0.6c0.6-1.5,1.9-5.2,2.7-7.5h1.7
		c0.7,2.1,2,6,2.6,7.6c0.2,0.5,0.4,0.6,1,0.6v0.5H122.4z M121.5,52.8L121.5,52.8c-0.3,0.8-0.8,2.3-1.1,3.3h2.1
		C122.2,55.3,121.7,53.7,121.5,52.8z M130.4,58.3c0,0.8,0.3,0.9,1.3,0.9c1.5,0,1.6-0.8,2-1.9h0.5l-0.1,2.5h-6.9v-0.5
		c0.9,0,1-0.1,1-0.7v-6.2c0-0.6-0.1-0.7-1-0.7v-0.5h4.4v0.5c-1.1,0-1.2,0.1-1.2,0.7L130.4,58.3L130.4,58.3z M136,52.4
		c0-0.6-0.1-0.7-1-0.7v-0.5h6.9v2.3h-0.5c-0.4-1.2-0.7-1.7-1.9-1.7h-0.9c-0.4,0-0.4,0.1-0.4,0.4V55h1.1c0.8,0,0.9-0.2,1.2-1.1h0.5v3
		h-0.5c-0.2-0.9-0.4-1.2-1.2-1.2h-1.1v2.7c0,0.8,0.1,0.9,1.5,0.9c1.5,0,1.7-0.8,2.2-2.1h0.5l-0.2,2.6H135v-0.5c0.9,0,1-0.1,1-0.7
		V52.4z M149.7,59.8c-1.5-2.3-3-4.6-4.5-6.9h-0.1v3.6c0,1.1,0,1.5,0.1,2c0.1,0.8,0.5,0.7,1.2,0.7v0.5h-3.1v-0.5c0.7-0.1,0.9,0,1-0.7
		c0.1-0.4,0.1-0.9,0.1-2v-4.2c0-0.6-0.1-0.7-1-0.7v-0.5h3.1c1.3,2,2.6,3.8,3.9,5.7h0.1v-2.5c0-1.1,0-1.5-0.1-2
		c-0.1-0.8-0.5-0.7-1.3-0.7v-0.5h3.1v0.5c-0.7,0.1-0.9,0-1,0.7c0,0.4-0.1,0.9-0.1,2v5.4L149.7,59.8L149.7,59.8z M160.9,56.9
		l-0.2,2.5c-0.8,0.5-2.1,0.6-3,0.6c-3.4,0-4.7-1.8-4.7-4.4c0-1.3,0.3-2.4,1.1-3.3c0.8-0.8,2-1.3,3.8-1.3c0.6,0,2,0.1,2.8,0.6v2.3
		h-0.5c-0.4-1-0.7-2.2-2.4-2.2c-2.3,0-2.4,3.1-2.4,3.8c0,1.4,0.3,4.1,2.5,4.1c1.4,0,1.9-1.1,2.4-2.5
		C160.4,56.9,160.9,56.9,160.9,56.9z M165.1,58.6c0,0.6,0.1,0.7,1,0.7v0.5h-4.2v-0.5c0.9,0,1-0.1,1-0.7v-6.2c0-0.6-0.1-0.7-1-0.7
		v-0.5h4.2v0.5c-0.9,0-1,0.1-1,0.7V58.6z M171.3,59.8v-0.5l0.8-0.1c0.3,0,0.3-0.2,0.2-0.4c-0.2-0.7-0.5-1.6-0.7-2h-2.5
		c-0.2,0.7-0.5,1.4-0.6,2.1c-0.1,0.3,0,0.4,0.2,0.4l0.8,0.1v0.5h-2.9v-0.5c0.7,0,0.8-0.1,1-0.6c0.6-1.5,1.9-5.2,2.7-7.5h1.7
		c0.7,2.1,2,6,2.6,7.6c0.2,0.5,0.4,0.6,1,0.6v0.5H171.3z M170.4,52.8L170.4,52.8c-0.3,0.8-0.8,2.3-1.1,3.3h2.1
		C171.1,55.3,170.6,53.7,170.4,52.8z M182.4,59.8c-1.5-2.3-3-4.6-4.5-6.9h-0.1v3.6c0,1.1,0,1.5,0.1,2c0.1,0.8,0.5,0.7,1.2,0.7v0.5
		H176v-0.5c0.7-0.1,0.9,0,1-0.7c0.1-0.4,0.1-0.9,0.1-2v-4.2c0-0.6-0.1-0.7-1-0.7v-0.5h3.1c1.3,2,2.6,3.8,3.9,5.7h0.1v-2.5
		c0-1.1,0-1.5-0.1-2c-0.1-0.8-0.5-0.7-1.3-0.7v-0.5h3.1v0.5c-0.7,0.1-0.9,0-1,0.7c0,0.4-0.1,0.9-0.1,2v5.4L182.4,59.8L182.4,59.8z
		 M190.1,51c2.9,0,4.4,1.7,4.4,4.5c0,2.8-1.4,4.5-4.4,4.5c-2.9,0-4.4-1.7-4.4-4.5C185.7,52.7,187.2,51,190.1,51L190.1,51z
		 M190.1,51.5c-1.8,0-1.9,2.4-1.9,3.9c0,1.7,0.2,3.9,2,3.9s1.9-2.3,1.9-3.9C192.1,53.9,191.9,51.5,190.1,51.5L190.1,51.5z"/>
</g>
</svg>
